Coordinates
version=1
nRows=21
nColumns=12
inDegrees=yes

Units are S.I. units (second, meters, Newtons, ...)
Angles are in degrees

endheader
time	SC_y	SC_z	SC_x	AC_y	AC_z	AC_x	GH_y	GH_z	GH_yy	EL_x	PS_y
       0.0              -54.93          6.015          29.74          66.12         -2.041          -15.5          46.63          41.42          48.89          128.6          53.22
   0.00548              -54.93           6.02          29.74          66.12         -2.042         -15.49          46.65          41.43           48.9          128.6          53.22
   0.01096              -54.93          6.024          29.75          66.12         -2.044         -15.49          46.66          41.43          48.91          128.6          53.22
   0.01644              -54.93          6.029          29.76          66.12         -2.045         -15.48          46.68          41.43          48.92          128.6          53.22
   0.02192              -54.93          6.035          29.77          66.12         -2.047         -15.48           46.7          41.44          48.93          128.5          53.22
    0.0274              -54.93           6.04          29.77          66.11         -2.049         -15.47          46.72          41.44          48.94          128.5          53.23
   0.03288              -54.93          6.046          29.78          66.11         -2.051         -15.47          46.74          41.44          48.95          128.5          53.23
   0.03836              -54.93          6.052          29.79          66.11         -2.054         -15.46          46.76          41.45          48.96          128.5          53.23
   0.04384              -54.94          6.059           29.8          66.11         -2.056         -15.45          46.79          41.45          48.97          128.5          53.24
   0.04932              -54.94          6.066          29.82          66.11         -2.059         -15.45          46.81          41.46          48.98          128.4          53.24
    0.0548              -54.94          6.074          29.83           66.1         -2.061         -15.44          46.84          41.46           49.0          128.4          53.24
   0.06028              -54.94          6.083          29.84           66.1         -2.064         -15.43          46.87          41.47          49.01          128.4          53.25
   0.06576              -54.94          6.092          29.85           66.1         -2.068         -15.42           46.9          41.47          49.03          128.4          53.25
   0.07124              -54.94          6.102          29.87           66.1         -2.071         -15.41          46.94          41.48          49.04          128.3          53.26
   0.07672              -54.94          6.112          29.89          66.09         -2.075          -15.4          46.98          41.49          49.06          128.3          53.26
    0.0822              -54.94          6.124           29.9          66.09         -2.079         -15.39          47.02          41.49          49.08          128.3          53.27
   0.08768              -54.94          6.136          29.92          66.09         -2.083         -15.37          47.06           41.5          49.11          128.2          53.27
   0.09316              -54.95           6.15          29.94          66.08         -2.088         -15.36          47.11          41.51          49.13          128.2          53.28
   0.09864              -54.95          6.165          29.97          66.08         -2.093         -15.34          47.16          41.52          49.16          128.1          53.28
    0.1041              -54.95          6.181          29.99          66.07         -2.099         -15.33          47.22          41.53          49.18          128.1          53.29
    0.1096              -54.95          6.199          30.02          66.07         -2.105         -15.31          47.28          41.54          49.22          128.0           53.3
